<svg width="31" height="26" viewBox="0 0 31 26" fill="none" xmlns="http://www.w3.org/2000/svg">
<g id="botAsset 1 1" clip-path="url(#clip0_404_528)">
<g id="Layer 1">
<path id="Vector" d="M15.4595 25.1809C12.8043 25.1967 10.1491 25.1935 7.52198 24.7151C6.77183 24.5789 6.0373 24.3808 5.31841 24.1242C1.99899 22.9408 0.272079 20.5027 0.0392197 17.0079C-0.526519 8.5228 5.08242 1.46669 13.3591 0.170801C21.3701 -1.0839 29.3342 4.71909 30.7298 12.8145C31.0377 14.6046 31.1158 16.3964 30.7845 18.185C30.1719 21.4991 28.0996 23.4351 24.9911 24.3476C22.7391 25.0098 20.4183 25.1191 18.0944 25.1761C17.2161 25.1983 16.3378 25.1793 15.458 25.1793L15.4595 25.1809ZM15.4908 23.0501C16.5644 23.0501 17.6396 23.0865 18.7117 23.0422C20.8762 22.9535 23.0454 22.8537 25.1193 22.1107C27.1541 21.3819 28.3809 19.9577 28.7606 17.7857C29.0122 16.3441 28.9607 14.9151 28.7419 13.4767C27.6307 6.19083 20.423 0.983505 13.2778 2.31266C6.20765 3.62598 1.54421 9.77592 2.11776 17.0221C2.33031 19.6947 3.63057 21.3803 6.13732 22.2057C6.59992 22.3578 7.07501 22.4814 7.55323 22.5748C10.1756 23.0865 12.8324 23.0707 15.4876 23.0501H15.4908Z" fill="#E8EDEE"/>
<path id="Vector_2" d="M15.489 23.0503C12.8338 23.0709 10.177 23.0883 7.55459 22.575C7.07637 22.4815 6.60128 22.3595 6.13868 22.2059C3.63193 21.3805 2.3301 19.6949 2.11912 17.0223C1.54401 9.77609 6.20745 3.62615 13.2745 2.31283C20.4197 0.983673 27.629 6.19259 28.7386 13.4768C28.9573 14.9153 29.0089 16.3443 28.7573 17.7859C28.3775 19.9579 27.1507 21.3805 25.1159 22.1108C23.0421 22.8538 20.8745 22.9536 18.7084 23.0423C17.6363 23.0867 16.5611 23.0503 15.4874 23.0503H15.489ZM19.6133 13.6812C19.6133 14.6697 19.6039 15.6599 19.6148 16.6484C19.6305 17.9633 20.4947 18.8917 21.6871 18.8964C22.8842 18.8996 23.7594 17.9855 23.7719 16.6627C23.7907 14.6444 23.7938 12.6261 23.7688 10.6094C23.7532 9.28815 22.8639 8.40891 21.6418 8.43109C20.4697 8.45168 19.632 9.36102 19.6148 10.6553C19.6023 11.6645 19.6117 12.6736 19.6117 13.6828L19.6133 13.6812ZM11.3663 13.6416C11.3663 12.672 11.3726 11.7025 11.3663 10.733C11.3554 9.35627 10.5224 8.43584 9.2987 8.4295C8.0672 8.42475 7.21703 9.33409 7.20765 10.7076C7.19515 12.6657 7.19671 14.6238 7.20765 16.5835C7.2139 17.9554 8.06251 18.8917 9.27525 18.8964C10.5146 18.9028 11.36 17.9602 11.3694 16.5502C11.3757 15.5807 11.3694 14.6111 11.3694 13.6416H11.3663Z" fill="#8BA5FF"/>
<path id="Vector_3" d="M19.6134 13.6798C19.6134 12.6706 19.6025 11.6615 19.6166 10.6523C19.6337 9.35803 20.4714 8.44868 21.6435 8.42809C22.8656 8.40749 23.7549 9.28515 23.7705 10.6064C23.7955 12.6247 23.7908 14.6414 23.7736 16.6597C23.7611 17.9825 22.886 18.8966 21.6888 18.8934C20.4949 18.8903 19.6306 17.9619 19.6166 16.6454C19.6056 15.6569 19.615 14.6667 19.615 13.6782L19.6134 13.6798Z" fill="#46515E"/>
<path id="Vector_4" d="M11.3663 13.6401C11.3663 14.6096 11.3726 15.5792 11.3663 16.5487C11.3569 17.9602 10.5115 18.9013 9.27214 18.8949C8.0594 18.8902 7.21235 17.9539 7.20454 16.582C7.19516 14.6239 7.19203 12.6658 7.20454 10.7061C7.21391 9.33259 8.06408 8.42324 9.29558 8.428C10.5208 8.43275 11.3522 9.35476 11.3632 10.7315C11.371 11.701 11.3632 12.6705 11.3648 13.6401H11.3663Z" fill="#46515E"/>
</g>
</g>
<defs>
<clipPath id="clip0_404_528">
<rect width="31" height="25.1875" fill="white"/>
</clipPath>
</defs>
</svg>
