<svg width="31" height="30" viewBox="0 0 31 30" fill="none" xmlns="http://www.w3.org/2000/svg">
<g id="cartAsset 1" clip-path="url(#clip0_404_587)">
<g id="Layer 1">
<path id="Vector" d="M6.09326 4.04733C9.84553 4.04575 13.5978 4.04417 17.3501 4.04417C21.6071 4.04417 25.8634 4.04812 30.1205 4.03785C30.5294 4.03705 30.821 4.16277 31.0001 4.53042V5.13448C30.8297 5.63101 30.8305 6.15442 30.7639 6.66597C30.5175 8.53982 30.2893 10.4152 30.0547 12.2899C29.9271 13.3075 29.7956 14.3242 29.6735 15.3418C29.6062 15.9016 29.4485 16.0937 28.8993 16.1688C27.3326 16.3831 25.7643 16.5855 24.1969 16.7942C22.2902 17.048 20.3836 17.3042 18.4761 17.558C16.4395 17.8284 14.4021 18.0956 12.3655 18.3676C11.3678 18.5013 10.3709 18.642 9.37323 18.7796C8.98334 18.3305 8.83119 17.7802 8.71787 17.2164C8.07836 14.038 7.44123 10.8596 6.80568 7.68038C6.56398 6.46989 6.331 5.25782 6.09405 4.04654L6.09326 4.04733ZM12.1112 15.3774C12.1056 15.3363 12.0945 15.2264 12.0763 15.1173C11.8853 13.9677 11.6927 12.818 11.5002 11.6692C11.2609 10.2421 11.0247 8.81497 10.779 7.38942C10.703 6.94745 10.3892 6.70788 10.0016 6.76797C9.59195 6.83122 9.38195 7.20204 9.46436 7.69145C9.76312 9.46488 10.0579 11.2391 10.3543 13.0125C10.4938 13.8451 10.6309 14.6777 10.7759 15.5086C10.8496 15.934 11.1483 16.1767 11.5255 16.1348C11.871 16.0961 12.108 15.8178 12.1112 15.3774ZM15.4933 14.6982C15.4886 14.6381 15.4854 14.578 15.4799 14.5179C15.3016 12.565 15.1288 10.6113 14.941 8.65921C14.8943 8.1698 14.9006 7.67248 14.7714 7.19413C14.6938 6.90712 14.433 6.72844 14.1327 6.73871C13.8443 6.7482 13.6366 6.89605 13.5257 7.16171C13.4663 7.30403 13.4797 7.459 13.4924 7.60922C13.6176 9.03161 13.742 10.454 13.872 11.8764C13.9615 12.8576 14.0503 13.8396 14.1557 14.8192C14.2001 15.2351 14.4956 15.4897 14.8515 15.4675C15.2421 15.443 15.5005 15.1339 15.4941 14.699L15.4933 14.6982ZM18.8755 10.7789C18.8755 9.71157 18.8755 8.64498 18.8755 7.5776C18.8755 7.31905 18.8351 7.07316 18.6204 6.89685C18.4064 6.72132 18.1631 6.68969 17.9135 6.80276C17.6092 6.94191 17.5117 7.21232 17.5117 7.52225C17.5094 9.67678 17.5078 11.8313 17.5117 13.9858C17.5125 14.4752 17.7827 14.7899 18.1806 14.7986C18.5895 14.8081 18.8637 14.4855 18.8755 13.9803C18.8771 13.9202 18.8755 13.8593 18.8755 13.7992C18.8755 12.7927 18.8755 11.7854 18.8755 10.7789ZM22.8901 7.6369C22.9139 7.07474 22.6793 6.75769 22.2886 6.73555C21.8908 6.71341 21.6032 6.99093 21.5501 7.4503C21.5215 7.70015 21.4914 7.9492 21.4637 8.19905C21.2735 9.89658 21.0801 11.5949 20.8963 13.2932C20.8472 13.7486 21.0976 14.0823 21.4922 14.1289C21.8575 14.1724 22.1745 13.9012 22.2332 13.4569C22.3306 12.7097 22.4091 11.9602 22.4931 11.2106C22.6294 9.99225 22.7649 8.77385 22.8909 7.6369H22.8901ZM26.9372 7.55151C26.9594 7.17753 26.8627 6.96642 26.6376 6.82727C26.2271 6.57347 25.7461 6.78457 25.6154 7.29771C25.1676 9.04821 24.7318 10.8019 24.2951 12.5548C24.2508 12.7319 24.25 12.9137 24.3411 13.0837C24.479 13.3399 24.7025 13.4601 24.9846 13.449C25.2992 13.4363 25.5163 13.2213 25.6114 12.8481C25.9165 11.6416 26.2176 10.4334 26.5196 9.22611C26.6677 8.63312 26.8159 8.03934 26.9372 7.55151Z" fill="#8BA5FF"/>
<path id="Vector_2" d="M6.09317 4.04745C6.33012 5.25873 6.5631 6.4708 6.8048 7.68129C7.43955 10.8605 8.07748 14.0389 8.71699 17.2174C8.83031 17.7811 8.98246 18.3314 9.37235 18.7805C10.0602 19.7601 11.0357 20.1744 12.2014 20.1776C14.9972 20.1847 17.7922 20.1799 20.5879 20.1799C22.8789 20.1799 25.1699 20.1791 27.4601 20.1799C28.0109 20.1799 28.3191 20.4567 28.2858 20.9105C28.2637 21.2157 28.0441 21.4576 27.739 21.5043C27.64 21.5193 27.5378 21.5209 27.4371 21.5209C22.3512 21.5209 17.2644 21.5256 12.1784 21.5193C9.95797 21.5169 8.11155 20.172 7.54732 18.1084C7.29612 17.1889 7.14555 16.2425 6.95774 15.3063C6.04246 10.7435 5.12876 6.18063 4.21902 1.6162C4.1794 1.41695 4.10966 1.33789 3.88777 1.34105C2.84887 1.35528 1.80917 1.35291 0.769468 1.345C0.197316 1.34026 -0.133929 0.914887 0.0499198 0.441286C0.167203 0.140838 0.412864 0.00800857 0.713996 0.00642727C2.03581 -0.00147926 3.35841 -0.00306056 4.68023 0.00721792C5.07487 0.0103805 5.3023 0.221485 5.38551 0.624718C5.61215 1.72768 5.83087 2.83143 6.05276 3.93518C6.06068 3.97313 6.07891 4.0095 6.09317 4.04666V4.04745Z" fill="white"/>
<path id="Vector_3" d="M8.09009 26.2284C8.09167 24.3649 9.59337 22.8721 11.4596 22.8784C13.3235 22.8848 14.8307 24.3902 14.8259 26.2403C14.8212 28.088 13.2989 29.6014 11.4485 29.599C9.59337 29.5966 8.0893 28.0873 8.09088 26.2292L8.09009 26.2284Z" fill="white"/>
<path id="Vector_4" d="M28.2961 26.2663C28.27 28.1299 26.7556 29.6171 24.9013 29.5982C23.0517 29.58 21.5397 28.0429 21.5603 26.2023C21.5809 24.3482 23.1087 22.8571 24.9646 22.8784C26.8364 22.8997 28.3215 24.4107 28.2961 26.2663Z" fill="white"/>
</g>
</g>
<defs>
<clipPath id="clip0_404_587">
<rect width="31" height="29.5989" fill="white"/>
</clipPath>
</defs>
</svg>
