<svg width="31" height="31" viewBox="0 0 31 31" fill="none" xmlns="http://www.w3.org/2000/svg">
<g id="dashboardAsset 1 1" clip-path="url(#clip0_404_609)">
<g id="Layer 1">
<g id="Group">
<path id="Vector" d="M13.0639 0H1.15129C0.515449 0 0 0.515449 0 1.15129V16.9429C0 17.5787 0.515449 18.0942 1.15129 18.0942H13.0639C13.6997 18.0942 14.2152 17.5787 14.2152 16.9429V1.15129C14.2152 0.515449 13.6997 0 13.0639 0Z" fill="#8BA5FF"/>
<path id="Vector_2" d="M29.8488 12.9077H17.9362C17.3004 12.9077 16.7849 13.4232 16.7849 14.059V29.8506C16.7849 30.4865 17.3004 31.0019 17.9362 31.0019H29.8488C30.4846 31.0019 31.0001 30.4865 31.0001 29.8506V14.059C31.0001 13.4232 30.4846 12.9077 29.8488 12.9077Z" fill="#8BA5FF"/>
<path id="Vector_3" d="M29.8488 0H17.9362C17.3004 0 16.7849 0.515449 16.7849 1.15129V9.19214C16.7849 9.82798 17.3004 10.3434 17.9362 10.3434H29.8488C30.4846 10.3434 31.0001 9.82798 31.0001 9.19214V1.15129C31.0001 0.515449 30.4846 0 29.8488 0Z" fill="white"/>
<path id="Vector_4" d="M13.0644 20.6584H1.15178C0.515938 20.6584 0.000488281 21.1739 0.000488281 21.8097V29.8506C0.000488281 30.4864 0.515938 31.0019 1.15178 31.0019H13.0644C13.7002 31.0019 14.2157 30.4864 14.2157 29.8506V21.8097C14.2157 21.1739 13.7002 20.6584 13.0644 20.6584Z" fill="white"/>
</g>
</g>
</g>
<defs>
<clipPath id="clip0_404_609">
<rect width="31" height="31.0018" fill="white"/>
</clipPath>
</defs>
</svg>
