<svg width="31" height="34" viewBox="0 0 31 34" fill="none" xmlns="http://www.w3.org/2000/svg">
<g id="exchange 1" clip-path="url(#clip0_404_577)">
<g id="Layer 1">
<path id="Vector" d="M25.1447 18.5373C25.3457 18.5367 25.5473 18.5354 25.7483 18.5347C26.2021 18.8953 26.2133 19.3892 26.208 19.9153C26.1903 21.6749 26.1936 23.4351 26.2061 25.1953C26.21 25.7351 26.2356 26.2645 25.7476 26.6409C23.1881 26.6409 20.6279 26.6409 18.0684 26.6409C16.0882 26.6409 14.1073 26.6455 12.127 26.6356C11.8709 26.6343 11.7921 26.7026 11.794 26.9647C11.8052 28.7479 11.8 30.5317 11.7993 32.3149C11.7993 32.4463 11.7816 32.5776 11.7894 32.7083C11.8157 33.1431 11.62 33.4367 11.2338 33.616H10.8397C10.6401 33.5201 10.4824 33.373 10.3281 33.218C7.01916 29.9058 3.70826 26.5956 0.39802 23.2853C-0.128072 22.7592 -0.130699 22.417 0.388168 21.8982C2.24427 20.0414 4.10234 18.1866 5.95646 16.3279C6.35777 15.9259 6.74659 15.5108 7.14066 15.1017C7.23984 15.0169 7.34493 14.9381 7.43688 14.8462C8.4444 13.8419 9.44995 12.8357 10.4548 11.8295C10.7011 11.5832 10.9803 11.4788 11.3172 11.62C11.6502 11.7592 11.7888 12.0226 11.7855 12.374C11.7829 12.6801 11.7783 12.9868 11.7868 13.2929C11.8039 13.8925 11.7402 14.4935 11.821 15.0925C11.8072 16.0974 11.7914 17.1016 11.7809 18.1065C11.7763 18.536 11.7809 18.5354 12.198 18.5367C14.1979 18.5406 16.1978 18.5446 18.1978 18.5485C18.1965 19.4345 18.1945 20.3205 18.1938 21.2059C18.1938 22.0269 18.5794 22.6502 19.2973 22.9372C19.9245 23.1881 20.7094 23.0765 21.2814 22.4939C22.4912 21.2604 23.7221 20.0473 24.9424 18.8237C25.0245 18.7416 25.1408 18.6786 25.1467 18.54L25.1447 18.5373Z" fill="white"/>
<path id="Vector_2" d="M20.2273 0.000168512C20.4565 0.21297 20.6917 0.419203 20.913 0.640542C24.1247 3.84898 27.3351 7.06004 30.5449 10.2704C31.1485 10.874 31.1505 11.1827 30.5554 11.7771C28.3893 13.9432 26.2232 16.1087 24.0577 18.2755C23.9809 18.3523 23.9126 18.4364 23.8403 18.5171C23.7523 18.5979 23.661 18.6754 23.5763 18.7595C22.5655 19.769 21.5586 20.7831 20.5432 21.788C20.0566 22.2701 19.4195 22.1098 19.2231 21.4688C19.2343 21.2823 19.2546 21.0957 19.1988 20.9125C19.204 20.8803 19.2086 20.8481 19.2139 20.8159C19.3374 20.7798 19.4057 20.6734 19.4891 20.59C22.5905 17.4906 25.6886 14.3872 28.7972 11.2944C29.0146 11.0776 29.0014 10.9693 28.7926 10.7617C25.6853 7.66758 22.5872 4.56488 19.4858 1.46482C19.4017 1.38075 19.3052 1.30916 19.2145 1.23166C19.1095 0.715417 19.2126 0.281276 19.7019 -0.000488281C19.8773 -0.000488281 20.052 -0.000488281 20.2273 -0.000488281V0.000168512Z" fill="#8BA5FF"/>
<path id="Vector_3" d="M19.2146 1.23235C19.3052 1.30985 19.4018 1.38144 19.4858 1.46551C22.5872 4.56492 25.686 7.66827 28.7926 10.7624C29.0015 10.9706 29.0153 11.0783 28.7972 11.2951C25.6893 14.3879 22.5912 17.4913 19.4891 20.5907C19.4057 20.6741 19.3374 20.7798 19.2139 20.8166C19.2021 20.0534 19.1896 19.2909 19.1771 18.5277C19.1804 17.4676 19.1785 16.4082 19.1916 15.3482C19.1942 15.117 19.095 15.0802 18.8974 15.0822C18.0888 15.09 17.2803 15.0874 16.4718 15.0848C15.2482 15.0815 14.0246 15.0749 12.8017 15.069C12.8036 14.1725 12.8076 13.2753 12.8062 12.3788C12.8049 11.59 12.3971 10.9667 11.6996 10.6751C11.0322 10.3959 10.2947 10.5555 9.74296 11.1059C8.50425 12.342 7.26751 13.5794 6.03142 14.8181C5.9572 14.8923 5.84883 14.9495 5.85803 15.0808C5.26757 15.0822 4.67711 15.0874 4.08731 15.0841C3.46336 15.0808 3.16189 14.7774 3.16189 14.1554C3.16058 12.099 3.16123 10.0426 3.16189 7.98615C3.16189 7.24792 3.4338 6.97207 4.16679 6.97207C6.90102 6.97141 9.63525 6.97207 12.3701 6.97207C14.5251 6.97207 16.6794 6.96615 18.8343 6.97929C19.1299 6.98126 19.1975 6.89456 19.1955 6.61017C19.1824 4.94783 19.1883 3.28483 19.1903 1.62248C19.1903 1.49244 19.2067 1.36173 19.2152 1.23169L19.2146 1.23235Z" fill="#8BA5FF"/>
<path id="Vector_4" d="M25.747 26.6404C26.235 26.2641 26.2094 25.7347 26.2054 25.1948C26.1936 23.4346 26.1897 21.6751 26.2074 19.9149C26.2127 19.3888 26.2022 18.8949 25.7477 18.5343C26.1627 18.5317 26.5785 18.5205 26.9936 18.529C27.5164 18.5396 27.8336 18.8528 27.8343 19.3724C27.8389 21.5148 27.8389 23.6579 27.8343 25.8004C27.833 26.3166 27.5157 26.6319 26.9923 26.6444C26.5772 26.6542 26.1614 26.6424 25.7463 26.6404H25.747Z" fill="white"/>
<path id="Vector_5" d="M19.2243 21.4687C19.1416 21.2867 19.1797 21.0989 19.2 20.9124C19.2559 21.0956 19.2355 21.2821 19.2243 21.4687Z" fill="#8BA5FF"/>
</g>
</g>
<defs>
<clipPath id="clip0_404_577">
<rect width="31" height="33.6154" fill="white"/>
</clipPath>
</defs>
</svg>
