<svg width="20" height="20" viewBox="0 0 20 20" fill="none" xmlns="http://www.w3.org/2000/svg">
<g id="Group 322">
<path id="Ellipse 12" d="M17.667 11.1663C17.667 12.9134 17.149 14.6213 16.1783 16.074C15.2077 17.5267 13.8281 18.6589 12.214 19.3275C10.5999 19.9961 8.82373 20.171 7.11019 19.8302C5.39665 19.4893 3.82267 18.648 2.58728 17.4126C1.35189 16.1772 0.510577 14.6032 0.169734 12.8897C-0.17111 11.1761 0.00382347 9.39999 0.672412 7.78587C1.341 6.17174 2.47322 4.79213 3.92588 3.82149C5.37855 2.85084 7.08642 2.33276 8.83352 2.33276L8.83352 11.1663L17.667 11.1663Z" fill="#8BA5FF"/>
<path id="Ellipse 13" d="M19.9999 9.97338C19.9999 8.66365 19.7419 7.36676 19.2407 6.15673C18.7395 4.9467 18.0049 3.84725 17.0788 2.92113C16.1527 1.99502 15.0532 1.26039 13.8432 0.759178C12.6332 0.257969 11.3363 -5.72498e-08 10.0266 0L10.0266 9.97338H19.9999Z" fill="#2F4050"/>
</g>
</svg>
