<svg width="31" height="31" viewBox="0 0 31 31" fill="none" xmlns="http://www.w3.org/2000/svg">
<g id="Layer 1">
<path id="Vector" d="M30.9984 25.8512C30.2014 25.8471 29.4052 25.8471 28.609 25.835C28.412 25.8318 28.4063 25.936 28.4072 26.0821C28.4104 26.7677 28.4007 27.4541 28.4136 28.1397C28.4176 28.3497 28.3595 28.4167 28.1447 28.4119C27.4591 28.399 26.7728 28.3998 26.0872 28.4119C25.8829 28.4151 25.8336 28.3449 25.8361 28.1527C25.8458 27.4768 25.8312 26.8008 25.8449 26.1249C25.849 25.9045 25.7965 25.8269 25.5615 25.8326C24.9058 25.8487 24.2501 25.8253 23.5944 25.8447C23.3247 25.8528 23.2424 25.7866 23.2432 25.5015C23.2529 21.2142 23.2504 16.9262 23.2504 12.6389C23.2504 10.2478 23.2545 7.85664 23.2448 5.46631C23.244 5.21113 23.3175 5.14733 23.5654 5.15379C24.2307 5.17156 24.8969 5.14895 25.5623 5.1651C25.7965 5.17075 25.8498 5.09323 25.8458 4.87277C25.832 4.19685 25.8474 3.52094 25.8369 2.84502C25.8344 2.65283 25.8837 2.58257 26.088 2.5858C26.7841 2.5971 27.4801 2.5963 28.1762 2.5858C28.3652 2.58338 28.4168 2.64394 28.4144 2.82726C28.4047 3.52336 28.4128 4.21946 28.4088 4.91557C28.4088 5.06173 28.4136 5.1659 28.6106 5.16267C29.4068 5.15056 30.2038 5.15056 31 5.14652V25.852L30.9984 25.8512Z" fill="#8BA5FF"/>
<path id="Vector_2" d="M7.14471 0C7.542 0.13486 7.96594 0.152626 8.36565 0.289101C10.81 1.12249 12.3289 2.80541 12.8053 5.32899C13.1824 7.32766 12.6688 9.15271 11.3155 10.6967C9.87407 12.3409 8.0265 13.0645 5.86562 12.8828C2.94246 12.6365 0.607167 10.4165 0.11136 7.63211C0.0863277 7.48998 0.102478 7.33009 0.000732422 7.20492V5.69158C0.0645251 5.65604 0.0540276 5.59144 0.0645251 5.5333C0.545797 2.90878 2.03402 1.14752 4.56797 0.289909C4.93377 0.166354 5.31652 0.0952903 5.69201 0H7.14471ZM7.75034 6.48055C7.75034 5.7053 7.74145 4.92925 7.75599 4.15401C7.76003 3.92305 7.68897 3.86572 7.4661 3.86975C6.78133 3.88348 6.09657 3.88106 5.41181 3.87056C5.21559 3.86733 5.15099 3.92305 5.15179 4.12413C5.15906 5.67543 5.15825 7.22672 5.15179 8.77801C5.15099 8.97748 5.21559 9.03643 5.41262 9.034C6.10707 9.02351 6.80233 9.02351 7.49759 9.034C7.69623 9.03724 7.7568 8.97505 7.75437 8.77721C7.74468 8.01165 7.75034 7.2461 7.75034 6.48055Z" fill="white"/>
<path id="Vector_3" d="M0.000807503 18.1019C0.74694 18.0987 1.49307 18.0849 2.2384 18.0979C2.5073 18.1027 2.61066 18.0397 2.60177 17.7482C2.57997 17.0836 2.60177 16.4174 2.59047 15.752C2.58724 15.5549 2.64538 15.4911 2.84483 15.4935C3.5304 15.504 4.21597 15.504 4.90154 15.4935C5.09696 15.4903 5.16317 15.5468 5.15994 15.7479C5.14864 16.4335 5.16398 17.1191 5.15106 17.8047C5.14702 18.0333 5.22616 18.0995 5.44741 18.0954C6.12249 18.0841 6.79837 18.0979 7.47425 18.0874C7.67531 18.0841 7.75445 18.1294 7.75364 18.3514C7.74718 21.618 7.74718 24.8853 7.75364 28.1518C7.75364 28.3513 7.69227 28.4094 7.49605 28.4062C6.83067 28.3957 6.16448 28.4167 5.4999 28.3949C5.2092 28.3852 5.14541 28.4894 5.15025 28.7583C5.16317 29.5036 5.15025 30.2498 5.14622 30.996H2.60339C2.60016 30.2207 2.59047 29.4455 2.59854 28.6702C2.60097 28.4587 2.53717 28.3949 2.32561 28.3973C1.55041 28.4062 0.775203 28.3957 0 28.3925V18.1003L0.000807503 18.1019Z" fill="#61C4F9"/>
<path id="Vector_4" d="M19.3743 20.7055C19.3743 22.7333 19.3679 24.761 19.3816 26.7887C19.3832 27.077 19.2944 27.136 19.0287 27.1287C18.3633 27.111 17.6971 27.1303 17.0318 27.1182C16.8275 27.1142 16.7766 27.1828 16.779 27.3766C16.7887 28.0622 16.7774 28.7487 16.7863 29.4343C16.7887 29.6305 16.7532 29.7234 16.5255 29.7193C15.8399 29.7056 15.1535 29.708 14.4679 29.7185C14.2693 29.7218 14.2079 29.6604 14.2112 29.4601C14.2225 28.764 14.2087 28.0679 14.2192 27.3718C14.2225 27.1715 14.1603 27.115 13.9616 27.1182C13.2656 27.1295 12.5695 27.1158 11.8734 27.1271C11.6764 27.1303 11.6191 27.0746 11.6199 26.8752C11.6255 22.7389 11.6255 18.6027 11.6199 14.4664C11.6199 14.2702 11.674 14.208 11.8734 14.2112C12.559 14.2225 13.2454 14.2064 13.931 14.2209C14.1619 14.2258 14.2233 14.1499 14.2192 13.927C14.2063 13.2511 14.2208 12.5752 14.2104 11.8992C14.2071 11.6998 14.2467 11.615 14.4712 11.6198C15.1567 11.6344 15.8431 11.6311 16.5287 11.6206C16.7241 11.6174 16.7887 11.6723 16.7855 11.8734C16.7742 12.5695 16.7871 13.2656 16.7774 13.9617C16.7742 14.162 16.8428 14.2225 17.039 14.2193C17.7149 14.2096 18.3908 14.2282 19.0667 14.2096C19.3275 14.2024 19.3792 14.288 19.3784 14.5326C19.3687 16.5903 19.3727 18.6487 19.3727 20.7071L19.3743 20.7055Z" fill="#468EF0"/>
</g>
</svg>
