<svg width="32" height="31" viewBox="0 0 32 31" fill="none" xmlns="http://www.w3.org/2000/svg">
<g id="Group 299">
<g id="TradingLab">
<mask id="mask0_404_503" style="mask-type:luminance" maskUnits="userSpaceOnUse" x="0" y="0" width="32" height="31">
<g id="7468492b96">
<path id="Vector" d="M0 0H31.0939V30.888H0V0Z" fill="white"/>
</g>
</mask>
<g mask="url(#mask0_404_503)">
<g id="Group">
<g id="Clip path group">
<mask id="mask1_404_503" style="mask-type:luminance" maskUnits="userSpaceOnUse" x="0" y="0" width="32" height="31">
<g id="01ac997f91">
<path id="Vector_2" d="M15.5467 0.032959C6.98251 0.032959 0.032959 6.92996 0.032959 15.444C0.032959 23.9514 6.98251 30.855 15.5467 30.855C24.1109 30.855 31.0604 23.9514 31.0604 15.444C31.0604 6.92996 24.1109 0.032959 15.5467 0.032959ZM23.8451 20.143C19.9916 20.143 17.5399 19.272 16.5301 17.2789C15.4671 15.1734 16.3838 12.619 17.3537 10.8439C15.9585 11.0285 14.9619 11.4114 14.3774 11.9724C13.6798 12.6455 13.5334 13.6224 13.3608 14.751C13.168 16.038 12.949 17.4965 11.7863 18.6054C10.5571 19.7869 8.57707 20.2685 5.55405 20.1234L5.66721 17.668C7.89952 17.767 9.38093 17.49 10.072 16.83C10.6236 16.2954 10.763 15.4175 10.909 14.3814C11.3011 11.7875 11.8326 8.2369 19.7058 8.2369H22.2571L20.6826 10.2234C19.8985 11.2134 17.8589 14.434 18.7424 16.17C19.3137 17.2985 21.327 17.754 24.4164 17.668L24.4829 20.13C24.2635 20.143 24.051 20.143 23.8451 20.143Z" fill="white"/>
</g>
</mask>
<g mask="url(#mask1_404_503)">
<g id="Group_2">
<path id="Vector_3" d="M0.032959 0.032959V30.855H31.0604V0.032959H0.032959Z" fill="#8BA5FF"/>
</g>
</g>
</g>
</g>
</g>
</g>
</g>
</svg>
