<?xml version="1.0" encoding="UTF-8"?>
<svg id="Layer_1" data-name="Layer 1" xmlns="http://www.w3.org/2000/svg" viewBox="0 0 554.34 639.84">
  <defs>
    <style>
      .cls-1 {
        fill: #f14b23;
        stroke: #f7931e;
        stroke-miterlimit: 10;
        stroke-width: 5px;
      }
    </style>
  </defs>
  <path class="cls-1" d="m189.85,103.33c-21.33,22.35-43.9,47.44-68.06,70.88-19.18,18.6-37.8,37.34-52.14,60.06-63.95,101.25-42,239.03,50.38,315.27,2.44,2.01,5.06,3.81,8.81,6.63-2.47-13.59-5.33-25.51-6.69-37.6-3.41-30.18-.03-59.04,19.67-83.85,12.06-15.19,27.59-25.32,46.33-30.48,20.83-5.73,40.78-13.24,56.23-29.26,18.55-19.24,24.91-42.19,18.84-68.07-5.35-22.82-28.29-35.06-51.64-28.66-18.52,5.08-32.67,16.9-46.01,29.83-6.05,5.86-11.86,12.09-16.9,18.81-5.93,7.92-11.41,7.16-18.61,1.78-16.47-12.31-24.07-32.83-18.8-53.6,5.08-20.04,16.63-36.6,30.07-51.63,8.03-8.98,13.2-18.07,11.02-30.29-2.27-12.71,3.15-21.29,12.27-30.2,52-50.8,103.27-102.34,154.81-153.61,2.04-2.03,4.3-3.82,6.78-6.01,2.22,1.97,3.95,3.89,6.03,5.28,9.37,6.23,9.11,13.45,4.55,23.09-8.96,18.94-16.62,38.5-25.13,58.54,93.24,15.27,163.8,62.53,208.25,145.68,31.47,58.86,39.71,121.96,24.62,186.86-31.37,134.94-154.04,224.99-288.83,213.57C116.98,624.61,10.16,515.7,2.89,377.08-4.4,237.82,90.9,131.96,189.85,103.33Zm152.85,279.17c.5.61.99,1.21,1.49,1.82,4.11-.68,8.28-1.11,12.33-2.06,63.46-14.84,108.34-54.42,142.61-107.82,1.63-2.55,1.46-7.69,0-10.54-6.59-12.96-13.74-25.65-21.11-38.19-3.1-5.28-7.23-9.96-11.96-16.36-22.45,72.9-66.82,127.38-123.37,173.15Zm-41.08,99.36c2.88,1.8,5.66,3.79,8.65,5.39,47.46,25.42,97.58,29.78,149.81,19.57,12.06-2.36,20.2-7.7,26.04-18.59,10.65-19.9,20.67-39.92,26.48-64.67-64.27,46.53-134.58,61.65-210.97,58.3Zm-101.55,25.79c0,3.71-.2,4.69.03,5.56,8.96,33.51,25.38,62.93,49.15,88.12,2.54,2.69,7.37,4.6,11.11,4.54,17.11-.26,34.22-1.23,51.31-2.21,3.78-.22,7.5-1.51,11.25-2.3-47.75-22.2-87.82-52.7-122.84-93.72Z"/>
</svg>