<?xml version="1.0" encoding="utf-8"?>
<!-- Generator: Adobe Illustrator 27.9.0, SVG Export Plug-In . SVG Version: 6.00 Build 0)  -->
<svg version="1.1" id="Layer_1" xmlns="http://www.w3.org/2000/svg" xmlns:xlink="http://www.w3.org/1999/xlink" x="0px" y="0px"
	 viewBox="0 0 500 500" style="enable-background:new 0 0 500 500;" xml:space="preserve">
<style type="text/css">
	.st0{fill:url(#SVGID_1_);}
</style>
<linearGradient id="SVGID_1_" gradientUnits="userSpaceOnUse" x1="16.5" y1="250" x2="483.5" y2="250">
	<stop  offset="1.298195e-07" style="stop-color:#543AB7"/>
	<stop  offset="1" style="stop-color:#00ACC1"/>
</linearGradient>
<path class="st0" d="M250,16.5C121.1,16.5,16.5,121,16.5,250c0,128.9,104.6,233.5,233.5,233.5c128.9,0,233.5-104.6,233.5-233.5
	C483.5,121,378.9,16.5,250,16.5z M374.9,321.2c-58,0-94.9-13.2-110.1-43.4c-16-31.9-2.2-70.6,12.4-97.5c-21,2.8-36,8.6-44.8,17.1
	c-10.5,10.2-12.7,25-15.3,42.1c-2.9,19.5-6.2,41.6-23.7,58.4c-18.5,17.9-48.3,25.2-93.8,23l1.7-37.2c33.6,1.5,55.9-2.7,66.3-12.7
	c8.3-8.1,10.4-21.4,12.6-37.1c5.9-39.3,13.9-93.1,132.4-93.1H351l-23.7,30.1c-11.8,15-42.5,63.8-29.2,90.1
	c8.6,17.1,38.9,24,85.4,22.7l1,37.3C381.2,321.2,378,321.2,374.9,321.2z"/>
</svg>
